<svg width="256" height="256" viewBox="0 0 256 256" fill="none" xmlns="http://www.w3.org/2000/svg">
<g clip-path="url(#clip0_101_2)">
<path d="M211 256H45C20.1 256 0 235.9 0 211V45C0 20.1 20.1 0 45 0H211C235.9 0 256 20.1 256 45V211C256 235.9 235.9 256 211 256Z" fill="#004656"/>
<rect x="19.5725" y="100.3" width="216.855" height="52.6" rx="10" fill="#00323A"/>
<path d="M33.4742 139.1L30.3422 115.628H35.8502L36.5702 128.12C36.5702 128.792 36.5822 129.452 36.6062 130.1C36.6302 130.724 36.6422 131.36 36.6422 132.008C36.6662 132.632 36.6782 133.304 36.6782 134.024H36.8222C36.9182 133.304 37.0262 132.632 37.1462 132.008C37.2902 131.36 37.4342 130.712 37.5782 130.064C37.7222 129.416 37.8542 128.768 37.9742 128.12L39.5582 121.568H42.9422L44.4182 128.12C44.5622 128.768 44.6942 129.404 44.8142 130.028C44.9342 130.652 45.0662 131.3 45.2102 131.972C45.3542 132.62 45.4742 133.304 45.5702 134.024H45.7142C45.7382 133.304 45.7502 132.62 45.7502 131.972C45.7742 131.3 45.7862 130.652 45.7862 130.028C45.8102 129.404 45.8342 128.768 45.8582 128.12L46.5062 115.628H51.6542L48.7742 139.1H43.0862L41.7182 131.828C41.5742 131.084 41.4422 130.328 41.3222 129.56C41.2022 128.792 41.1182 128.06 41.0702 127.364H40.9622C40.8902 128.06 40.8062 128.792 40.7102 129.56C40.6142 130.328 40.4942 131.084 40.3502 131.828L38.9822 139.1H33.4742ZM62.5842 139.532C61.0242 139.532 59.5482 139.172 58.1562 138.452C56.7642 137.708 55.6362 136.64 54.7722 135.248C53.9082 133.832 53.4762 132.14 53.4762 130.172C53.4762 128.204 53.9082 126.524 54.7722 125.132C55.6362 123.716 56.7642 122.648 58.1562 121.928C59.5482 121.184 61.0242 120.812 62.5842 120.812C64.1442 120.812 65.6202 121.184 67.0122 121.928C68.4042 122.648 69.5322 123.716 70.3962 125.132C71.2602 126.524 71.6922 128.204 71.6922 130.172C71.6922 132.14 71.2602 133.832 70.3962 135.248C69.5322 136.64 68.4042 137.708 67.0122 138.452C65.6202 139.172 64.1442 139.532 62.5842 139.532ZM62.5842 135.248C63.4002 135.248 64.0722 135.044 64.6002 134.636C65.1522 134.228 65.5602 133.64 65.8242 132.872C66.1122 132.104 66.2562 131.204 66.2562 130.172C66.2562 129.14 66.1122 128.24 65.8242 127.472C65.5602 126.704 65.1522 126.116 64.6002 125.708C64.0722 125.3 63.4002 125.096 62.5842 125.096C61.7682 125.096 61.0842 125.3 60.5322 125.708C60.0042 126.116 59.5962 126.704 59.3082 127.472C59.0442 128.24 58.9122 129.14 58.9122 130.172C58.9122 131.204 59.0442 132.104 59.3082 132.872C59.5962 133.64 60.0042 134.228 60.5322 134.636C61.0842 135.044 61.7682 135.248 62.5842 135.248ZM77.5461 139.1V121.244H81.8661L82.2981 125.132H82.4061C83.2941 123.668 84.3621 122.588 85.6101 121.892C86.8821 121.172 88.2261 120.812 89.6421 120.812C90.4341 120.812 91.0701 120.872 91.5501 120.992C92.0541 121.112 92.5701 121.292 93.0981 121.532L92.0181 125.96C91.4661 125.792 90.9621 125.672 90.5061 125.6C90.0741 125.504 89.5221 125.456 88.8501 125.456C87.7461 125.456 86.6541 125.78 85.5741 126.428C84.5181 127.076 83.6061 128.204 82.8381 129.812V139.1H77.5461ZM97.6921 139.1V113.864H102.984V128.444H103.128L109.68 121.244H115.476L102.984 134.6V139.1H97.6921ZM110.292 139.1L105.108 131L108.132 127.724L116.016 139.1H110.292ZM127.198 139.532C125.614 139.532 124.042 139.268 122.482 138.74C120.922 138.188 119.578 137.54 118.45 136.796L120.718 133.484C121.798 134.18 122.938 134.708 124.138 135.068C125.362 135.428 126.622 135.608 127.918 135.608C128.902 135.608 129.622 135.464 130.078 135.176C130.534 134.864 130.762 134.504 130.762 134.096C130.762 133.832 130.69 133.616 130.546 133.448C130.426 133.256 130.198 133.088 129.862 132.944C129.55 132.776 129.106 132.62 128.53 132.476C127.978 132.332 127.258 132.164 126.37 131.972C123.946 131.444 122.206 130.724 121.15 129.812C120.094 128.9 119.566 127.76 119.566 126.392C119.566 124.712 120.298 123.368 121.762 122.36C123.226 121.328 125.23 120.812 127.774 120.812C129.382 120.812 130.834 121.076 132.13 121.604C133.45 122.108 134.578 122.66 135.514 123.26L133.138 126.428C132.25 125.876 131.302 125.456 130.294 125.168C129.286 124.88 128.29 124.736 127.306 124.736C126.754 124.736 126.298 124.796 125.938 124.916C125.578 125.012 125.302 125.18 125.11 125.42C124.918 125.636 124.822 125.876 124.822 126.14C124.822 126.62 125.134 126.98 125.758 127.22C126.382 127.436 127.45 127.712 128.962 128.048C130.786 128.456 132.214 128.924 133.246 129.452C134.278 129.98 134.986 130.592 135.37 131.288C135.778 131.96 135.982 132.788 135.982 133.772C135.982 134.852 135.646 135.824 134.974 136.688C134.326 137.552 133.342 138.248 132.022 138.776C130.726 139.28 129.118 139.532 127.198 139.532ZM140.72 145.724V121.244H145.04L145.436 123.044H145.544C146.288 122.396 147.116 121.868 148.028 121.46C148.964 121.028 149.912 120.812 150.872 120.812C152.36 120.812 153.632 121.184 154.688 121.928C155.768 122.672 156.596 123.728 157.172 125.096C157.748 126.464 158.036 128.06 158.036 129.884C158.036 131.924 157.664 133.664 156.92 135.104C156.2 136.544 155.252 137.648 154.076 138.416C152.9 139.16 151.64 139.532 150.296 139.532C149.504 139.532 148.724 139.364 147.956 139.028C147.212 138.692 146.528 138.212 145.904 137.588H145.76L146.012 140.504V145.724H140.72ZM149.072 135.212C149.744 135.212 150.344 135.032 150.872 134.672C151.4 134.312 151.82 133.748 152.132 132.98C152.444 132.188 152.6 131.18 152.6 129.956C152.6 128.876 152.48 127.988 152.24 127.292C152 126.572 151.64 126.032 151.16 125.672C150.704 125.312 150.092 125.132 149.324 125.132C148.748 125.132 148.184 125.264 147.632 125.528C147.104 125.768 146.564 126.188 146.012 126.788V134.024C146.516 134.432 147.032 134.732 147.56 134.924C148.112 135.116 148.616 135.212 149.072 135.212ZM167.778 139.532C166.578 139.532 165.534 139.292 164.646 138.812C163.782 138.332 163.11 137.684 162.63 136.868C162.15 136.052 161.91 135.14 161.91 134.132C161.91 132.14 162.81 130.616 164.61 129.56C166.434 128.504 169.458 127.856 173.682 127.616C173.61 127.064 173.43 126.596 173.142 126.212C172.854 125.828 172.434 125.54 171.882 125.348C171.354 125.132 170.682 125.024 169.866 125.024C169.29 125.024 168.714 125.096 168.138 125.24C167.562 125.36 166.962 125.552 166.338 125.816C165.738 126.056 165.102 126.344 164.43 126.68L162.558 123.224C163.374 122.744 164.226 122.324 165.114 121.964C166.026 121.604 166.962 121.328 167.922 121.136C168.906 120.92 169.902 120.812 170.91 120.812C172.59 120.812 174.03 121.112 175.23 121.712C176.43 122.288 177.354 123.176 178.002 124.376C178.65 125.552 178.974 127.052 178.974 128.876V139.1H174.654L174.258 137.084H174.114C173.226 137.756 172.242 138.332 171.162 138.812C170.082 139.292 168.954 139.532 167.778 139.532ZM169.47 135.428C170.262 135.428 171.006 135.272 171.702 134.96C172.398 134.624 173.058 134.216 173.682 133.736V130.784C171.93 130.88 170.562 131.06 169.578 131.324C168.618 131.588 167.946 131.924 167.562 132.332C167.178 132.74 166.986 133.208 166.986 133.736C166.986 134.096 167.082 134.408 167.274 134.672C167.49 134.936 167.778 135.128 168.138 135.248C168.522 135.368 168.966 135.428 169.47 135.428ZM193.648 139.532C191.776 139.532 190.084 139.172 188.572 138.452C187.084 137.708 185.896 136.64 185.008 135.248C184.144 133.832 183.712 132.14 183.712 130.172C183.712 128.204 184.192 126.524 185.152 125.132C186.112 123.716 187.372 122.648 188.932 121.928C190.516 121.184 192.22 120.812 194.044 120.812C195.46 120.812 196.744 121.04 197.896 121.496C199.048 121.928 199.996 122.504 200.74 123.224L198.292 126.5C197.596 126.02 196.924 125.672 196.276 125.456C195.652 125.216 195.004 125.096 194.332 125.096C193.324 125.096 192.424 125.3 191.632 125.708C190.84 126.116 190.228 126.704 189.796 127.472C189.364 128.24 189.148 129.14 189.148 130.172C189.148 131.204 189.352 132.104 189.76 132.872C190.192 133.64 190.78 134.228 191.524 134.636C192.292 135.044 193.168 135.248 194.152 135.248C195.088 135.248 195.94 135.08 196.708 134.744C197.5 134.408 198.22 134.012 198.868 133.556L200.992 136.904C199.936 137.792 198.748 138.452 197.428 138.884C196.132 139.316 194.872 139.532 193.648 139.532ZM214.766 139.532C212.918 139.532 211.238 139.172 209.726 138.452C208.238 137.708 207.05 136.64 206.162 135.248C205.298 133.832 204.866 132.14 204.866 130.172C204.866 128.228 205.31 126.56 206.198 125.168C207.086 123.752 208.238 122.672 209.654 121.928C211.07 121.184 212.57 120.812 214.154 120.812C216.002 120.812 217.55 121.196 218.798 121.964C220.046 122.708 220.982 123.728 221.606 125.024C222.254 126.296 222.578 127.748 222.578 129.38C222.578 129.86 222.542 130.328 222.47 130.784C222.422 131.216 222.374 131.54 222.326 131.756H208.79V128.192H218.762L217.934 129.2C217.934 127.76 217.622 126.68 216.998 125.96C216.398 125.216 215.51 124.844 214.334 124.844C213.47 124.844 212.714 125.036 212.066 125.42C211.418 125.804 210.914 126.392 210.554 127.184C210.194 127.976 210.014 128.972 210.014 130.172C210.014 131.396 210.23 132.404 210.662 133.196C211.094 133.964 211.718 134.54 212.534 134.924C213.35 135.308 214.334 135.5 215.486 135.5C216.302 135.5 217.07 135.392 217.79 135.176C218.534 134.96 219.302 134.648 220.094 134.24L221.858 137.444C220.826 138.092 219.686 138.608 218.438 138.992C217.19 139.352 215.966 139.532 214.766 139.532Z" fill="white"/>
<path d="M32.2862 205.6V182.128H37.8302L40.1342 190.444L40.9262 193.684H41.0702L41.8622 190.444L44.1662 182.128H49.7102V205.6H45.2462V198.328C45.2462 197.68 45.2702 196.876 45.3182 195.916C45.3662 194.932 45.4262 193.912 45.4982 192.856C45.5702 191.8 45.6422 190.792 45.7142 189.832C45.8102 188.872 45.8822 188.08 45.9302 187.456H45.8222L44.0222 193.72L42.2222 199.372H39.6302L37.7942 193.72L36.1022 187.456H35.9942C36.0422 188.08 36.1022 188.872 36.1742 189.832C36.2702 190.792 36.3542 191.8 36.4262 192.856C36.4982 193.912 36.5582 194.932 36.6062 195.916C36.6542 196.876 36.6782 197.68 36.6782 198.328V205.6H32.2862ZM56.9322 212.584C56.4042 212.584 55.9122 212.548 55.4562 212.476C55.0002 212.404 54.5802 212.32 54.1962 212.224L55.1322 208.192C55.3722 208.264 55.6122 208.312 55.8522 208.336C56.0922 208.384 56.3202 208.408 56.5362 208.408C57.5682 208.408 58.3722 208.18 58.9482 207.724C59.5482 207.292 59.9922 206.74 60.2802 206.068L60.6402 205.132L52.9002 187.744H58.1562L61.1442 195.412C61.4802 196.252 61.7922 197.128 62.0802 198.04C62.3682 198.928 62.6562 199.84 62.9442 200.776H63.0882C63.3282 199.888 63.5922 198.988 63.8802 198.076C64.1682 197.164 64.4442 196.276 64.7082 195.412L67.3362 187.744H72.3402L65.2842 205.78C64.7322 207.268 64.0842 208.516 63.3402 209.524C62.6202 210.532 61.7442 211.288 60.7122 211.792C59.7042 212.32 58.4442 212.584 56.9322 212.584ZM107.772 206.032C106.308 206.032 104.916 205.78 103.596 205.276C102.3 204.772 101.148 204.016 100.14 203.008C99.1321 201.976 98.3401 200.716 97.7641 199.228C97.1881 197.716 96.9001 195.976 96.9001 194.008C96.9001 191.416 97.3921 189.208 98.3761 187.384C99.3841 185.536 100.728 184.132 102.408 183.172C104.112 182.188 106.008 181.696 108.096 181.696C109.584 181.696 110.928 182.008 112.128 182.632C113.328 183.232 114.324 183.916 115.116 184.684L112.2 187.96C111.648 187.432 111.036 187.024 110.364 186.736C109.716 186.424 108.96 186.268 108.096 186.268C106.992 186.268 106.008 186.58 105.144 187.204C104.28 187.804 103.596 188.668 103.092 189.796C102.588 190.924 102.336 192.268 102.336 193.828C102.336 195.436 102.588 196.816 103.092 197.968C103.596 199.096 104.292 199.96 105.18 200.56C106.092 201.16 107.136 201.46 108.312 201.46C109.176 201.46 109.956 201.268 110.652 200.884C111.348 200.5 111.984 199.996 112.56 199.372L115.476 202.576C114.516 203.704 113.388 204.568 112.092 205.168C110.796 205.744 109.356 206.032 107.772 206.032ZM127.342 206.032C125.782 206.032 124.306 205.672 122.914 204.952C121.522 204.208 120.394 203.14 119.53 201.748C118.666 200.332 118.234 198.64 118.234 196.672C118.234 194.704 118.666 193.024 119.53 191.632C120.394 190.216 121.522 189.148 122.914 188.428C124.306 187.684 125.782 187.312 127.342 187.312C128.902 187.312 130.378 187.684 131.77 188.428C133.162 189.148 134.29 190.216 135.154 191.632C136.018 193.024 136.45 194.704 136.45 196.672C136.45 198.64 136.018 200.332 135.154 201.748C134.29 203.14 133.162 204.208 131.77 204.952C130.378 205.672 128.902 206.032 127.342 206.032ZM127.342 201.748C128.158 201.748 128.83 201.544 129.358 201.136C129.91 200.728 130.318 200.14 130.582 199.372C130.87 198.604 131.014 197.704 131.014 196.672C131.014 195.64 130.87 194.74 130.582 193.972C130.318 193.204 129.91 192.616 129.358 192.208C128.83 191.8 128.158 191.596 127.342 191.596C126.526 191.596 125.842 191.8 125.29 192.208C124.762 192.616 124.354 193.204 124.066 193.972C123.802 194.74 123.67 195.64 123.67 196.672C123.67 197.704 123.802 198.604 124.066 199.372C124.354 200.14 124.762 200.728 125.29 201.136C125.842 201.544 126.526 201.748 127.342 201.748ZM147.344 206.032C145.088 206.032 143.264 205.204 141.872 203.548C140.504 201.868 139.82 199.576 139.82 196.672C139.82 194.728 140.18 193.06 140.9 191.668C141.644 190.276 142.604 189.208 143.78 188.464C144.956 187.696 146.18 187.312 147.452 187.312C148.436 187.312 149.288 187.48 150.008 187.816C150.728 188.152 151.376 188.62 151.952 189.22H152.096L151.844 186.448V180.364H157.136V205.6H152.816L152.42 203.764H152.312C151.664 204.412 150.896 204.952 150.008 205.384C149.144 205.816 148.256 206.032 147.344 206.032ZM148.712 201.712C149.312 201.712 149.864 201.592 150.368 201.352C150.896 201.088 151.388 200.656 151.844 200.056V192.82C151.364 192.388 150.872 192.088 150.368 191.92C149.888 191.728 149.384 191.632 148.856 191.632C148.208 191.632 147.608 191.812 147.056 192.172C146.504 192.532 146.06 193.084 145.724 193.828C145.412 194.548 145.256 195.472 145.256 196.6C145.256 198.352 145.556 199.648 146.156 200.488C146.756 201.304 147.608 201.712 148.712 201.712ZM171.594 206.032C169.746 206.032 168.066 205.672 166.554 204.952C165.066 204.208 163.878 203.14 162.99 201.748C162.126 200.332 161.694 198.64 161.694 196.672C161.694 194.728 162.138 193.06 163.026 191.668C163.914 190.252 165.066 189.172 166.482 188.428C167.898 187.684 169.398 187.312 170.982 187.312C172.83 187.312 174.378 187.696 175.626 188.464C176.874 189.208 177.81 190.228 178.434 191.524C179.082 192.796 179.406 194.248 179.406 195.88C179.406 196.36 179.37 196.828 179.298 197.284C179.25 197.716 179.202 198.04 179.154 198.256H165.618V194.692H175.59L174.762 195.7C174.762 194.26 174.45 193.18 173.826 192.46C173.226 191.716 172.338 191.344 171.162 191.344C170.298 191.344 169.542 191.536 168.894 191.92C168.246 192.304 167.742 192.892 167.382 193.684C167.022 194.476 166.842 195.472 166.842 196.672C166.842 197.896 167.058 198.904 167.49 199.696C167.922 200.464 168.546 201.04 169.362 201.424C170.178 201.808 171.162 202 172.314 202C173.13 202 173.898 201.892 174.618 201.676C175.362 201.46 176.13 201.148 176.922 200.74L178.686 203.944C177.654 204.592 176.514 205.108 175.266 205.492C174.018 205.852 172.794 206.032 171.594 206.032Z" fill="white"/>
<path d="M32.8982 72.6V49.128H41.2142C42.9182 49.128 44.4542 49.368 45.8222 49.848C47.2142 50.304 48.3182 51.084 49.1342 52.188C49.9742 53.292 50.3942 54.792 50.3942 56.688C50.3942 58.512 49.9742 60.012 49.1342 61.188C48.2942 62.364 47.1782 63.24 45.7862 63.816C44.3942 64.368 42.8702 64.644 41.2142 64.644H38.1902V72.6H32.8982ZM38.1902 60.432H40.8902C42.3542 60.432 43.4342 60.108 44.1302 59.46C44.8502 58.812 45.2102 57.888 45.2102 56.688C45.2102 55.44 44.8382 54.576 44.0942 54.096C43.3742 53.592 42.3062 53.34 40.8902 53.34H38.1902V60.432ZM55.9602 72.6V54.744H60.2802L60.7122 58.632H60.8202C61.7082 57.168 62.7762 56.088 64.0242 55.392C65.2962 54.672 66.6402 54.312 68.0562 54.312C68.8482 54.312 69.4842 54.372 69.9642 54.492C70.4682 54.612 70.9842 54.792 71.5122 55.032L70.4322 59.46C69.8802 59.292 69.3762 59.172 68.9202 59.1C68.4882 59.004 67.9362 58.956 67.2642 58.956C66.1602 58.956 65.0682 59.28 63.9882 59.928C62.9322 60.576 62.0202 61.704 61.2522 63.312V72.6H55.9602ZM84.1701 73.032C82.6101 73.032 81.1341 72.672 79.7421 71.952C78.3501 71.208 77.2221 70.14 76.3581 68.748C75.4941 67.332 75.0621 65.64 75.0621 63.672C75.0621 61.704 75.4941 60.024 76.3581 58.632C77.2221 57.216 78.3501 56.148 79.7421 55.428C81.1341 54.684 82.6101 54.312 84.1701 54.312C85.7301 54.312 87.2061 54.684 88.5981 55.428C89.9901 56.148 91.1181 57.216 91.9821 58.632C92.8461 60.024 93.2781 61.704 93.2781 63.672C93.2781 65.64 92.8461 67.332 91.9821 68.748C91.1181 70.14 89.9901 71.208 88.5981 71.952C87.2061 72.672 85.7301 73.032 84.1701 73.032ZM84.1701 68.748C84.9861 68.748 85.6581 68.544 86.1861 68.136C86.7381 67.728 87.1461 67.14 87.4101 66.372C87.6981 65.604 87.8421 64.704 87.8421 63.672C87.8421 62.64 87.6981 61.74 87.4101 60.972C87.1461 60.204 86.7381 59.616 86.1861 59.208C85.6581 58.8 84.9861 58.596 84.1701 58.596C83.3541 58.596 82.6701 58.8 82.1181 59.208C81.5901 59.616 81.1821 60.204 80.8941 60.972C80.6301 61.74 80.4981 62.64 80.4981 63.672C80.4981 64.704 80.6301 65.604 80.8941 66.372C81.1821 67.14 81.5901 67.728 82.1181 68.136C82.6701 68.544 83.3541 68.748 84.1701 68.748ZM101.976 79.656C100.872 79.656 99.8641 79.536 98.9521 79.296C98.0641 79.08 97.2361 78.792 96.4681 78.432L98.0161 74.652C98.7361 74.964 99.3841 75.18 99.9601 75.3C100.56 75.444 101.124 75.516 101.652 75.516C102.516 75.516 103.188 75.372 103.668 75.084C104.148 74.82 104.484 74.412 104.676 73.86C104.868 73.308 104.964 72.6 104.964 71.736V58.884H97.7641V54.744H110.256V71.52C110.256 72.624 110.124 73.656 109.86 74.616C109.596 75.6 109.152 76.464 108.528 77.208C107.904 77.976 107.052 78.576 105.972 79.008C104.916 79.44 103.584 79.656 101.976 79.656ZM107.376 51.936C106.368 51.936 105.528 51.648 104.856 51.072C104.184 50.472 103.848 49.692 103.848 48.732C103.848 47.748 104.184 46.956 104.856 46.356C105.528 45.732 106.368 45.42 107.376 45.42C108.408 45.42 109.248 45.732 109.896 46.356C110.568 46.956 110.904 47.748 110.904 48.732C110.904 49.692 110.568 50.472 109.896 51.072C109.248 51.648 108.408 51.936 107.376 51.936ZM128.422 73.032C126.574 73.032 124.894 72.672 123.382 71.952C121.894 71.208 120.706 70.14 119.818 68.748C118.954 67.332 118.522 65.64 118.522 63.672C118.522 61.728 118.966 60.06 119.854 58.668C120.742 57.252 121.894 56.172 123.31 55.428C124.726 54.684 126.226 54.312 127.81 54.312C129.658 54.312 131.206 54.696 132.454 55.464C133.702 56.208 134.638 57.228 135.262 58.524C135.91 59.796 136.234 61.248 136.234 62.88C136.234 63.36 136.198 63.828 136.126 64.284C136.078 64.716 136.03 65.04 135.982 65.256H122.446V61.692H132.418L131.59 62.7C131.59 61.26 131.278 60.18 130.654 59.46C130.054 58.716 129.166 58.344 127.99 58.344C127.126 58.344 126.37 58.536 125.722 58.92C125.074 59.304 124.57 59.892 124.21 60.684C123.85 61.476 123.67 62.472 123.67 63.672C123.67 64.896 123.886 65.904 124.318 66.696C124.75 67.464 125.374 68.04 126.19 68.424C127.006 68.808 127.99 69 129.142 69C129.958 69 130.726 68.892 131.446 68.676C132.19 68.46 132.958 68.148 133.75 67.74L135.514 70.944C134.482 71.592 133.342 72.108 132.094 72.492C130.846 72.852 129.622 73.032 128.422 73.032ZM150.476 73.032C148.604 73.032 146.912 72.672 145.4 71.952C143.912 71.208 142.724 70.14 141.836 68.748C140.972 67.332 140.54 65.64 140.54 63.672C140.54 61.704 141.02 60.024 141.98 58.632C142.94 57.216 144.2 56.148 145.76 55.428C147.344 54.684 149.048 54.312 150.872 54.312C152.288 54.312 153.572 54.54 154.724 54.996C155.876 55.428 156.824 56.004 157.568 56.724L155.12 60C154.424 59.52 153.752 59.172 153.104 58.956C152.48 58.716 151.832 58.596 151.16 58.596C150.152 58.596 149.252 58.8 148.46 59.208C147.668 59.616 147.056 60.204 146.624 60.972C146.192 61.74 145.976 62.64 145.976 63.672C145.976 64.704 146.18 65.604 146.588 66.372C147.02 67.14 147.608 67.728 148.352 68.136C149.12 68.544 149.996 68.748 150.98 68.748C151.916 68.748 152.768 68.58 153.536 68.244C154.328 67.908 155.048 67.512 155.696 67.056L157.82 70.404C156.764 71.292 155.576 71.952 154.256 72.384C152.96 72.816 151.7 73.032 150.476 73.032ZM173.682 73.032C171.786 73.032 170.274 72.708 169.146 72.06C168.042 71.388 167.238 70.464 166.734 69.288C166.23 68.112 165.978 66.744 165.978 65.184V58.884H161.514V54.96L166.23 54.744L166.914 49.272H171.27V54.744H178.83V58.884H171.27V65.148C171.27 66.036 171.402 66.756 171.666 67.308C171.93 67.86 172.338 68.268 172.89 68.532C173.442 68.772 174.15 68.892 175.014 68.892C175.71 68.892 176.346 68.832 176.922 68.712C177.498 68.592 178.05 68.436 178.578 68.244L179.514 72.06C178.722 72.3 177.846 72.516 176.886 72.708C175.95 72.924 174.882 73.032 173.682 73.032ZM205.73 72.6V68.316H211.886V55.104H206.81V51.828C207.842 51.66 208.73 51.492 209.474 51.324C210.242 51.132 210.926 50.916 211.526 50.676C212.126 50.412 212.714 50.1 213.29 49.74H217.178V68.316H222.362V72.6H205.73Z" fill="white"/>
</g>
<defs>
<clipPath id="clip0_101_2">
<rect width="256" height="256" fill="white"/>
</clipPath>
</defs>
</svg>
